<svg width="170" height="55" viewBox="0 0 170 55" fill="none" xmlns="http://www.w3.org/2000/svg"><rect x=".5" width="169" height="55" rx="10" fill="#488A4C"/><path d="M20.036 33.825l5.317-17.153h4.468L22.292 38h-2.974l.718-4.175zM15.13 16.672l5.288 17.153.762 4.175h-3.003l-7.5-21.328h4.453zM38.2 38.293c-1.201 0-2.28-.195-3.237-.586a7.109 7.109 0 01-2.446-1.626 7.476 7.476 0 01-1.539-2.446 8.526 8.526 0 01-.527-3.018v-.586c0-1.22.176-2.329.527-3.325.352-1.006.85-1.87 1.495-2.593a6.575 6.575 0 012.314-1.67c.898-.39 1.89-.586 2.974-.586 1.123 0 2.114.19 2.973.572a5.75 5.75 0 012.154 1.582c.576.683 1.01 1.504 1.303 2.46.293.948.44 1.998.44 3.15v1.626H32.209v-2.666h8.613v-.293a4.67 4.67 0 00-.351-1.684 2.692 2.692 0 00-.996-1.231c-.45-.313-1.03-.469-1.744-.469-.576 0-1.079.127-1.508.381-.42.244-.772.596-1.055 1.055-.273.45-.478.986-.615 1.611a9.753 9.753 0 00-.205 2.08v.586c0 .664.087 1.28.263 1.846.186.566.454 1.06.806 1.48.361.41.791.732 1.29.966.507.225 1.083.337 1.728.337.81 0 1.542-.156 2.197-.469a4.893 4.893 0 001.728-1.42l1.949 2.02c-.332.49-.782.958-1.348 1.407-.557.45-1.23.816-2.021 1.099-.792.273-1.705.41-2.74.41zm12.89-12.905V38h-3.866V22.15h3.662l.205 3.238zm4.82-3.34l-.058 3.603a6.844 6.844 0 00-.733-.087c-.264-.02-.513-.03-.747-.03-.596 0-1.118.083-1.567.25-.45.155-.825.385-1.128.688a3.04 3.04 0 00-.674 1.113c-.156.43-.244.918-.264 1.465l-.835-.103c0-1.006.103-1.938.308-2.798.205-.859.503-1.61.893-2.255.391-.645.88-1.143 1.465-1.495.596-.36 1.28-.542 2.051-.542.215 0 .444.02.689.059.253.03.454.073.6.132zM82.44 26.97v8.305c-.313.4-.806.835-1.48 1.304-.664.469-1.533.874-2.607 1.216-1.075.332-2.393.498-3.956.498-1.357 0-2.597-.225-3.72-.674a8.023 8.023 0 01-2.9-2.007c-.811-.879-1.436-1.953-1.876-3.222-.44-1.27-.659-2.72-.659-4.35v-1.407c0-1.631.205-3.081.615-4.35.42-1.27 1.016-2.345 1.788-3.223a7.73 7.73 0 012.797-2.007c1.094-.46 2.315-.689 3.662-.689 1.807 0 3.291.298 4.454.894 1.171.596 2.07 1.416 2.695 2.46.625 1.036 1.016 2.227 1.172 3.575h-3.926c-.107-.742-.322-1.392-.645-1.948a3.322 3.322 0 00-1.376-1.319c-.586-.322-1.348-.483-2.286-.483-.79 0-1.489.156-2.094.469a4.143 4.143 0 00-1.524 1.362c-.41.596-.722 1.333-.937 2.212-.205.879-.308 1.885-.308 3.018v1.435c0 1.143.117 2.158.352 3.047.234.879.571 1.621 1.01 2.227a4.455 4.455 0 001.656 1.362c.664.303 1.416.454 2.256.454.761 0 1.391-.064 1.89-.19.507-.137.912-.298 1.215-.484.303-.185.537-.366.703-.542v-3.999h-4.233V26.97h8.261zm12.246 7.66v-7.309c0-.537-.093-1-.279-1.391a2.011 2.011 0 00-.85-.909c-.38-.214-.864-.322-1.45-.322-.517 0-.971.088-1.362.264-.38.176-.674.425-.879.747a1.931 1.931 0 00-.307 1.084h-3.882c0-.654.156-1.274.468-1.86a4.975 4.975 0 011.334-1.582c.586-.47 1.284-.835 2.094-1.1.82-.263 1.739-.395 2.754-.395 1.201 0 2.27.206 3.208.616.947.4 1.69 1.006 2.227 1.816.547.81.82 1.831.82 3.062v6.914c0 .79.049 1.47.147 2.036.107.556.263 1.04.468 1.45V38h-3.94c-.186-.4-.327-.908-.425-1.523a11.94 11.94 0 01-.146-1.846zm.542-6.283l.029 2.3H92.81c-.606 0-1.138.063-1.597.19-.46.117-.835.293-1.128.527a2.137 2.137 0 00-.66.82 2.49 2.49 0 00-.219 1.07c0 .39.088.742.264 1.055.185.312.449.561.79.747.352.175.762.263 1.231.263.684 0 1.28-.136 1.787-.41.508-.283.904-.625 1.187-1.025.283-.4.434-.782.454-1.143l1.113 1.67a6.55 6.55 0 01-.615 1.274c-.273.45-.625.87-1.055 1.26-.43.39-.947.713-1.552.967-.606.254-1.309.381-2.11.381-1.025 0-1.943-.205-2.754-.615-.81-.41-1.45-.972-1.919-1.685-.468-.713-.703-1.523-.703-2.431 0-.84.157-1.582.469-2.227a4.268 4.268 0 011.392-1.626c.615-.45 1.376-.786 2.285-1.01.918-.235 1.968-.352 3.15-.352h2.607zM106.169 15.5V38h-3.882V15.5h3.882zm10.81 22.793c-1.201 0-2.28-.195-3.237-.586a7.11 7.11 0 01-2.446-1.626 7.472 7.472 0 01-1.538-2.446 8.515 8.515 0 01-.528-3.018v-.586c0-1.22.176-2.329.528-3.325.351-1.006.849-1.87 1.494-2.593a6.573 6.573 0 012.314-1.67c.899-.39 1.89-.586 2.974-.586 1.123 0 2.114.19 2.974.572a5.751 5.751 0 012.153 1.582c.576.683 1.011 1.504 1.304 2.46.293.948.439 1.998.439 3.15v1.626h-12.422v-2.666h8.614v-.293a4.675 4.675 0 00-.352-1.684 2.694 2.694 0 00-.996-1.231c-.449-.313-1.03-.469-1.743-.469-.576 0-1.079.127-1.509.381-.42.244-.772.596-1.055 1.055-.273.45-.478.986-.615 1.611a9.733 9.733 0 00-.205 2.08v.586c0 .664.088 1.28.264 1.846a4.42 4.42 0 00.805 1.48c.362.41.791.732 1.289.966.508.225 1.084.337 1.729.337.81 0 1.543-.156 2.197-.469a4.901 4.901 0 001.729-1.42l1.948 2.02c-.332.49-.781.958-1.348 1.407-.556.45-1.23.816-2.021 1.099-.791.273-1.704.41-2.74.41zm12.891-12.905V38h-3.867V22.15h3.662l.205 3.238zm4.819-3.34l-.058 3.603a6.842 6.842 0 00-.733-.087c-.263-.02-.512-.03-.747-.03-.595 0-1.118.083-1.567.25a2.93 2.93 0 00-1.128.688 3.036 3.036 0 00-.674 1.113c-.156.43-.244.918-.263 1.465l-.835-.103c0-1.006.102-1.938.307-2.798.205-.859.503-1.61.894-2.255.39-.645.879-1.143 1.465-1.495.595-.36 1.279-.542 2.05-.542.215 0 .445.02.689.059.254.03.454.073.6.132zm6.299.102V38h-3.882V22.15h3.882zm-3.808-2.021l2.871-4.453h4.277l-3.999 4.453h-3.149zm16.391 14.502v-7.31c0-.537-.092-1-.278-1.391a2.014 2.014 0 00-.85-.909c-.381-.214-.864-.322-1.45-.322-.517 0-.972.088-1.362.264a2.007 2.007 0 00-.879.747 1.931 1.931 0 00-.308 1.084h-3.882c0-.654.157-1.274.469-1.86a4.983 4.983 0 011.333-1.582c.586-.47 1.284-.835 2.095-1.1.82-.263 1.738-.395 2.754-.395 1.201 0 2.27.206 3.208.616.947.4 1.689 1.006 2.226 1.816.547.81.821 1.831.821 3.062v6.914c0 .79.049 1.47.146 2.036.108.556.264 1.04.469 1.45V38h-3.94c-.186-.4-.328-.908-.425-1.523a11.903 11.903 0 01-.147-1.846zm.542-6.284l.03 2.3h-2.447c-.605 0-1.137.063-1.596.19-.459.117-.835.293-1.128.527a2.144 2.144 0 00-.66.82 2.498 2.498 0 00-.219 1.07c0 .39.088.742.263 1.055.186.312.45.561.791.747.352.175.762.263 1.231.263.684 0 1.279-.136 1.787-.41.508-.283.903-.625 1.187-1.025.283-.4.434-.782.454-1.143l1.113 1.67a6.59 6.59 0 01-.615 1.274c-.274.45-.625.87-1.055 1.26a5.37 5.37 0 01-1.553.967c-.605.254-1.308.381-2.109.381-1.025 0-1.943-.205-2.754-.615-.811-.41-1.45-.972-1.919-1.685-.469-.713-.703-1.523-.703-2.431 0-.84.156-1.582.469-2.227a4.265 4.265 0 011.391-1.626c.616-.45 1.377-.786 2.285-1.01.918-.235 1.968-.352 3.15-.352h2.607z" fill="#fff"/></svg>