<svg width="773" height="30" viewBox="0 0 773 30" fill="none" xmlns="http://www.w3.org/2000/svg"><path d="M4.828 1.672V23H.8V1.672h4.028zm7.852 8.862V23H8.813V7.15h3.632l.235 3.384zm-.615 3.97h-1.143c.01-1.152.166-2.197.469-3.135.302-.937.727-1.743 1.274-2.417A5.728 5.728 0 0114.643 7.4c.761-.36 1.61-.542 2.548-.542.762 0 1.45.108 2.066.323a3.896 3.896 0 011.582 1.025c.45.469.79 1.084 1.025 1.846.244.752.366 1.68.366 2.783V23h-3.896V12.805c0-.723-.107-1.294-.322-1.714a1.797 1.797 0 00-.909-.894c-.39-.175-.873-.263-1.45-.263-.595 0-1.118.122-1.567.366a3.24 3.24 0 00-1.113.981c-.293.42-.518.904-.674 1.45a6.43 6.43 0 00-.234 1.773zm22.294 4.16c0-.332-.087-.63-.263-.894-.176-.263-.508-.502-.996-.717-.479-.225-1.182-.435-2.11-.63a15.573 15.573 0 01-2.27-.66 7.346 7.346 0 01-1.787-.951 4.327 4.327 0 01-1.172-1.333c-.274-.518-.41-1.114-.41-1.788 0-.654.141-1.27.424-1.845a4.516 4.516 0 011.23-1.538c.538-.45 1.192-.801 1.964-1.055.771-.264 1.64-.396 2.607-.396 1.348 0 2.505.22 3.472.66.976.439 1.724 1.045 2.241 1.816.518.762.776 1.621.776 2.578h-3.867c0-.42-.097-.8-.293-1.142-.185-.342-.473-.616-.864-.82-.39-.216-.884-.323-1.48-.323-.537 0-.99.088-1.362.264-.361.175-.635.405-.82.688a1.675 1.675 0 00-.278.938c0 .254.048.483.146.688.108.195.278.376.513.542.234.166.551.317.952.454.41.137.913.269 1.509.396 1.181.234 2.212.547 3.09.937.89.381 1.583.889 2.08 1.524.499.634.748 1.445.748 2.431a4.15 4.15 0 01-.454 1.934 4.482 4.482 0 01-1.319 1.509c-.576.43-1.264.766-2.065 1.01-.801.235-1.704.352-2.71.352-1.455 0-2.686-.259-3.692-.776-1.005-.528-1.767-1.192-2.285-1.993-.517-.81-.776-1.65-.776-2.52h3.706c.03.616.195 1.11.498 1.48.303.371.684.64 1.143.806.468.156.962.234 1.48.234.585 0 1.078-.078 1.479-.234.4-.166.703-.386.908-.66.205-.282.307-.605.307-.966zm10.591-8.467v18.897h-3.882V7.15h3.59l.292 3.047zm10.18 4.717v.308c0 1.152-.136 2.221-.41 3.208-.263.976-.654 1.83-1.171 2.563a5.566 5.566 0 01-1.934 1.7c-.762.4-1.64.6-2.637.6-.976 0-1.826-.186-2.548-.557a5.248 5.248 0 01-1.831-1.611c-.498-.693-.899-1.499-1.201-2.417a18.004 18.004 0 01-.66-3.032v-.982c.147-1.162.367-2.217.66-3.164.302-.957.703-1.782 1.2-2.475a5.238 5.238 0 011.817-1.626c.723-.381 1.567-.572 2.534-.572 1.006 0 1.89.19 2.652.572.771.38 1.42.927 1.948 1.64.527.713.923 1.563 1.186 2.55.264.986.396 2.084.396 3.295zm-3.881.308v-.308c0-.703-.064-1.352-.19-1.948a5.227 5.227 0 00-.586-1.582 2.92 2.92 0 00-1.026-1.07c-.42-.254-.928-.38-1.523-.38-.596 0-1.109.097-1.538.293-.43.195-.782.473-1.055.835a4.198 4.198 0 00-.645 1.289 7.908 7.908 0 00-.292 1.626v2.431c.087.723.258 1.372.512 1.948a3.232 3.232 0 001.114 1.377c.498.342 1.142.513 1.933.513.596 0 1.104-.132 1.524-.395.42-.264.761-.625 1.025-1.084a5.33 5.33 0 00.571-1.612c.117-.605.176-1.25.176-1.933zM62.133 7.15V23H58.25V7.15h3.882zM58.324 5.13L61.195.676h4.278l-4 4.453h-3.149zm11.529 5.259V23h-3.868V7.15h3.662l.206 3.238zm4.819-3.34l-.059 3.603a6.845 6.845 0 00-.732-.088c-.264-.02-.513-.029-.747-.029-.596 0-1.118.083-1.568.25-.449.155-.825.385-1.127.688a3.04 3.04 0 00-.674 1.113c-.157.43-.245.918-.264 1.465l-.835-.103c0-1.006.103-1.938.308-2.798.205-.859.503-1.61.893-2.255.39-.645.88-1.143 1.465-1.495.596-.36 1.28-.542 2.05-.542.216 0 .445.02.69.059.253.03.453.073.6.132zM85.028 19.63v-7.31c0-.537-.093-1-.278-1.391a2.012 2.012 0 00-.85-.909c-.38-.214-.864-.322-1.45-.322-.517 0-.972.088-1.362.264-.381.176-.674.425-.879.747a1.93 1.93 0 00-.308 1.084H76.02c0-.654.157-1.274.47-1.86a4.975 4.975 0 011.332-1.582c.586-.47 1.285-.835 2.095-1.1.82-.263 1.738-.395 2.754-.395 1.201 0 2.27.205 3.208.616.947.4 1.69 1.006 2.227 1.816.546.81.82 1.831.82 3.062v6.914c0 .79.049 1.47.146 2.036.108.556.264 1.04.469 1.45V23H85.6c-.186-.4-.328-.908-.425-1.523a11.94 11.94 0 01-.147-1.846zm.542-6.284l.03 2.3h-2.447c-.605 0-1.137.063-1.596.19-.46.117-.835.293-1.128.527a2.137 2.137 0 00-.66.82 2.49 2.49 0 00-.22 1.07c0 .39.089.742.264 1.055.186.312.45.561.791.747.352.175.762.263 1.231.263.684 0 1.28-.136 1.787-.41.508-.283.903-.625 1.187-1.025.283-.4.434-.782.454-1.143l1.113 1.67c-.137.4-.342.825-.615 1.274a5.74 5.74 0 01-1.055 1.26c-.43.39-.947.713-1.553.967-.605.254-1.308.381-2.11.381-1.024 0-1.942-.205-2.753-.615-.81-.41-1.45-.972-1.919-1.685-.469-.713-.703-1.523-.703-2.431 0-.84.156-1.582.469-2.227a4.269 4.269 0 011.391-1.626c.616-.45 1.377-.786 2.285-1.01.918-.235 1.968-.352 3.15-.352h2.607zM99.911 7.15v2.784H90.83V7.15h9.082zm-6.65-3.896h3.882V18.43c0 .468.063.83.19 1.084a.982.982 0 00.571.512c.254.088.557.132.909.132.253 0 .488-.014.703-.044.215-.029.395-.058.542-.088l.014 2.9a7.25 7.25 0 01-1.098.264c-.4.069-.855.103-1.363.103-.869 0-1.63-.146-2.285-.44-.654-.302-1.162-.786-1.523-1.45-.362-.673-.542-1.562-.542-2.666V3.254zm16.347 20.039c-1.201 0-2.28-.195-3.237-.586a7.11 7.11 0 01-2.446-1.626 7.472 7.472 0 01-1.538-2.446 8.515 8.515 0 01-.528-3.018v-.586c0-1.22.176-2.329.528-3.325.351-1.006.849-1.87 1.494-2.593a6.574 6.574 0 012.314-1.67c.899-.39 1.89-.586 2.974-.586 1.123 0 2.114.19 2.974.572a5.751 5.751 0 012.153 1.582c.576.683 1.011 1.504 1.304 2.46.293.948.439 1.998.439 3.15v1.626h-12.422v-2.666h8.613v-.293a4.653 4.653 0 00-.351-1.684 2.694 2.694 0 00-.996-1.231c-.449-.313-1.03-.469-1.743-.469-.577 0-1.079.127-1.509.381-.42.244-.772.596-1.055 1.055-.273.45-.478.986-.615 1.611a9.733 9.733 0 00-.205 2.08v.586c0 .664.088 1.28.264 1.846a4.42 4.42 0 00.805 1.48c.362.41.791.732 1.289.966.508.225 1.084.337 1.729.337.81 0 1.543-.156 2.197-.469a4.901 4.901 0 001.729-1.42l1.948 2.02c-.332.49-.781.958-1.348 1.407-.557.45-1.23.816-2.021 1.099-.791.273-1.704.41-2.74.41zm22.998-3.047c.547 0 1.036-.107 1.465-.322.43-.215.772-.518 1.026-.908.263-.391.405-.845.424-1.363h3.648c-.02 1.075-.322 2.037-.908 2.886-.586.85-1.367 1.523-2.344 2.021-.967.489-2.051.733-3.252.733-1.221 0-2.285-.205-3.193-.615a6.217 6.217 0 01-2.271-1.714 7.566 7.566 0 01-1.347-2.549 10.655 10.655 0 01-.44-3.105v-.47c0-1.103.147-2.138.44-3.105a7.566 7.566 0 011.347-2.548 6.217 6.217 0 012.271-1.714c.908-.41 1.967-.616 3.178-.616 1.28 0 2.403.25 3.37.747a5.552 5.552 0 012.285 2.11c.556.908.844 1.977.864 3.208h-3.648a3.51 3.51 0 00-.38-1.524 2.808 2.808 0 00-.996-1.083c-.43-.274-.953-.41-1.568-.41-.654 0-1.201.136-1.64.41-.43.273-.767.649-1.011 1.127a5.522 5.522 0 00-.498 1.582 12.028 12.028 0 00-.132 1.817v.469c0 .644.044 1.26.132 1.845.097.586.263 1.114.498 1.582a2.88 2.88 0 001.011 1.099c.439.273.996.41 1.669.41zm8.453-5.01v-.307c0-1.162.166-2.232.498-3.208.332-.987.815-1.841 1.45-2.564a6.53 6.53 0 012.329-1.684c.918-.41 1.963-.616 3.135-.616 1.191 0 2.246.205 3.164.616.927.4 1.709.962 2.344 1.684a7.434 7.434 0 011.45 2.564c.332.976.498 2.046.498 3.208v.307c0 1.153-.166 2.222-.498 3.208a7.617 7.617 0 01-1.45 2.564 6.533 6.533 0 01-2.33 1.684c-.918.4-1.967.601-3.149.601-1.172 0-2.222-.2-3.149-.6a6.499 6.499 0 01-2.344-1.685 7.6 7.6 0 01-1.45-2.564c-.332-.986-.498-2.055-.498-3.208zm3.867-.307v.307c0 .694.068 1.343.205 1.949.137.605.347 1.137.63 1.596.283.46.649.82 1.098 1.084.459.254 1.006.381 1.641.381.625 0 1.162-.127 1.611-.38.45-.264.816-.626 1.099-1.085.293-.459.508-.991.644-1.596a8.815 8.815 0 00.206-1.949v-.307c0-.684-.069-1.324-.206-1.92a4.963 4.963 0 00-.644-1.596 3.073 3.073 0 00-1.113-1.098c-.45-.274-.992-.41-1.626-.41-.625 0-1.162.136-1.612.41-.449.263-.815.63-1.098 1.098a5.21 5.21 0 00-.63 1.597 8.549 8.549 0 00-.205 1.919zm17.607-4.395V23h-3.867V7.15h3.633l.234 3.384zm-.615 3.97h-1.143c.01-1.152.166-2.197.469-3.135.303-.937.728-1.743 1.275-2.417a5.717 5.717 0 011.977-1.553c.762-.36 1.611-.542 2.549-.542.762 0 1.45.108 2.065.323a3.888 3.888 0 011.582 1.025c.45.469.791 1.084 1.026 1.846.244.752.366 1.68.366 2.783V23h-3.896V12.805c0-.723-.108-1.294-.323-1.714a1.798 1.798 0 00-.908-.894c-.391-.175-.874-.263-1.45-.263-.596 0-1.118.122-1.568.366-.439.234-.81.561-1.113.981-.293.42-.517.904-.674 1.45a6.439 6.439 0 00-.234 1.773zm24.844-3.97V23h-3.867V7.15h3.632l.235 3.384zm-.616 3.97h-1.142c.01-1.152.166-2.197.469-3.135.302-.937.727-1.743 1.274-2.417a5.73 5.73 0 011.978-1.553c.761-.36 1.611-.542 2.548-.542.762 0 1.451.108 2.066.323a3.901 3.901 0 011.582 1.025c.449.469.791 1.084 1.025 1.846.244.752.366 1.68.366 2.783V23h-3.896V12.805c0-.723-.107-1.294-.322-1.714a1.798 1.798 0 00-.908-.894c-.391-.175-.874-.263-1.451-.263-.595 0-1.118.122-1.567.366a3.238 3.238 0 00-1.113.981c-.293.42-.518.904-.674 1.45a6.438 6.438 0 00-.235 1.773zm23.013 4.731V7.15h3.897V23h-3.662l-.235-3.765zm.498-3.28l1.201-.03c0 1.064-.117 2.046-.351 2.944-.235.899-.601 1.68-1.099 2.344a5.096 5.096 0 01-1.86 1.538c-.752.361-1.641.542-2.666.542a6.739 6.739 0 01-2.139-.322 4.36 4.36 0 01-1.67-1.04c-.459-.479-.815-1.09-1.069-1.831-.254-.752-.381-1.656-.381-2.71V7.15h3.867V17.42c0 .527.059.967.176 1.318.127.352.298.64.513.865.224.214.483.37.776.468.303.088.625.132.967.132.937 0 1.675-.185 2.212-.557.547-.38.937-.888 1.172-1.523.234-.645.351-1.367.351-2.168zm13.946 7.338c-1.202 0-2.281-.195-3.238-.586a7.11 7.11 0 01-2.446-1.626 7.472 7.472 0 01-1.538-2.446 8.514 8.514 0 01-.527-3.018v-.586c0-1.22.175-2.329.527-3.325.351-1.006.849-1.87 1.494-2.593a6.583 6.583 0 012.314-1.67c.899-.39 1.89-.586 2.974-.586 1.123 0 2.114.19 2.974.572a5.751 5.751 0 012.153 1.582c.576.683 1.011 1.504 1.304 2.46.293.948.439 1.998.439 3.15v1.626h-12.422v-2.666h8.614v-.293a4.675 4.675 0 00-.352-1.684 2.694 2.694 0 00-.996-1.231c-.449-.313-1.03-.469-1.743-.469-.576 0-1.079.127-1.509.381-.42.244-.771.596-1.055 1.055-.273.45-.478.986-.615 1.611a9.733 9.733 0 00-.205 2.08v.586c0 .664.088 1.28.264 1.846a4.42 4.42 0 00.805 1.48c.362.41.791.732 1.289.966.508.225 1.084.337 1.729.337.81 0 1.543-.156 2.197-.469a4.901 4.901 0 001.729-1.42l1.948 2.02c-.332.49-.781.958-1.348 1.407-.556.45-1.23.816-2.021 1.099-.791.273-1.704.41-2.739.41zm17.739-4.629c0-.332-.088-.63-.264-.894-.176-.263-.508-.502-.996-.717-.478-.225-1.182-.435-2.109-.63a15.577 15.577 0 01-2.271-.66 7.349 7.349 0 01-1.787-.951 4.325 4.325 0 01-1.172-1.333c-.273-.518-.41-1.114-.41-1.788 0-.654.142-1.27.425-1.845a4.514 4.514 0 011.23-1.538c.537-.45 1.192-.801 1.963-1.055.772-.264 1.641-.396 2.608-.396 1.347 0 2.504.22 3.471.66.977.439 1.724 1.045 2.241 1.816.518.762.777 1.621.777 2.578h-3.867c0-.42-.098-.8-.293-1.142-.186-.342-.474-.616-.865-.82-.39-.216-.883-.323-1.479-.323-.537 0-.991.088-1.362.264-.362.175-.635.405-.821.688a1.68 1.68 0 00-.278.938c0 .254.049.483.146.688.108.195.279.376.513.542.235.166.552.317.952.454.41.137.913.269 1.509.396 1.182.234 2.212.547 3.091.937.889.381 1.582.889 2.08 1.524.498.634.747 1.445.747 2.431 0 .703-.151 1.348-.454 1.934a4.485 4.485 0 01-1.318 1.509c-.577.43-1.265.766-2.066 1.01-.801.235-1.704.352-2.71.352-1.455 0-2.685-.259-3.691-.776-1.006-.528-1.768-1.192-2.285-1.993-.518-.81-.777-1.65-.777-2.52h3.706c.03.616.196 1.11.498 1.48.303.371.684.64 1.143.806.469.156.962.234 1.479.234.586 0 1.08-.078 1.48-.234.4-.166.703-.386.908-.66.205-.282.308-.605.308-.966zM255.565 7.15v2.784h-9.082V7.15h9.082zm-6.65-3.896h3.882V18.43c0 .468.063.83.19 1.084a.983.983 0 00.572.512c.253.088.556.132.908.132.254 0 .488-.014.703-.044.215-.029.395-.058.542-.088l.015 2.9a7.294 7.294 0 01-1.099.264c-.4.069-.855.103-1.362.103-.87 0-1.631-.146-2.286-.44-.654-.302-1.162-.786-1.523-1.45-.361-.673-.542-1.562-.542-2.666V3.254zm13.096 7.134V23h-3.867V7.15h3.662l.205 3.238zm4.819-3.34l-.059 3.603a6.821 6.821 0 00-.732-.088c-.264-.02-.513-.029-.747-.029-.596 0-1.118.083-1.567.25-.45.155-.826.385-1.128.688a3.036 3.036 0 00-.674 1.113c-.156.43-.244.918-.264 1.465l-.835-.103c0-1.006.103-1.938.308-2.798.205-.859.503-1.61.893-2.255.391-.645.879-1.143 1.465-1.495.596-.36 1.28-.542 2.051-.542.215 0 .444.02.688.059.254.03.455.073.601.132zm10.357 12.583v-7.31c0-.537-.093-1-.279-1.391a2.012 2.012 0 00-.849-.909c-.381-.214-.865-.322-1.451-.322-.517 0-.971.088-1.362.264a2.007 2.007 0 00-.879.747 1.93 1.93 0 00-.307 1.084h-3.882c0-.654.156-1.274.468-1.86a4.984 4.984 0 011.333-1.582c.586-.47 1.285-.835 2.095-1.1.821-.263 1.738-.395 2.754-.395 1.201 0 2.271.205 3.208.616.947.4 1.69 1.006 2.227 1.816.547.81.82 1.831.82 3.062v6.914c0 .79.049 1.47.146 2.036.108.556.264 1.04.469 1.45V23h-3.94c-.186-.4-.327-.908-.425-1.523a11.9 11.9 0 01-.146-1.846zm.542-6.284l.029 2.3h-2.446c-.606 0-1.138.063-1.597.19-.459.117-.835.293-1.128.527a2.132 2.132 0 00-.659.82c-.147.313-.22.67-.22 1.07 0 .39.088.742.264 1.055.185.312.449.561.791.747.351.175.761.263 1.23.263.684 0 1.279-.136 1.787-.41.508-.283.904-.625 1.187-1.025.283-.4.434-.782.454-1.143l1.113 1.67a6.59 6.59 0 01-.615 1.274 5.72 5.72 0 01-1.055 1.26c-.429.39-.947.713-1.552.967-.606.254-1.309.381-2.11.381-1.025 0-1.943-.205-2.754-.615-.81-.41-1.45-.972-1.919-1.685-.468-.713-.703-1.523-.703-2.431 0-.84.156-1.582.469-2.227a4.259 4.259 0 011.392-1.626c.615-.45 1.376-.786 2.285-1.01.918-.235 1.967-.352 3.149-.352h2.608zm24.389-6.197h3.516v15.367c0 1.435-.313 2.651-.938 3.647-.615 1.006-1.479 1.768-2.592 2.285-1.114.528-2.408.791-3.882.791a9.006 9.006 0 01-2.066-.263 8.368 8.368 0 01-2.124-.835 5.252 5.252 0 01-1.684-1.45l1.743-2.286c.527.616 1.123 1.08 1.787 1.392a4.867 4.867 0 002.153.483c.781 0 1.446-.146 1.992-.44a2.889 2.889 0 001.275-1.259c.303-.547.454-1.22.454-2.021V10.769l.366-3.619zm-10.708 8.116v-.308c0-1.21.147-2.31.44-3.296.293-.996.712-1.85 1.259-2.563a5.84 5.84 0 012.007-1.656c.791-.39 1.68-.586 2.666-.586 1.045 0 1.924.19 2.637.572a4.83 4.83 0 011.787 1.626c.479.703.85 1.538 1.113 2.505.274.957.484 2.011.63 3.164v.835a16.578 16.578 0 01-.659 3.09c-.293.938-.684 1.758-1.172 2.461a5.123 5.123 0 01-1.816 1.612c-.723.38-1.573.571-2.549.571-.977 0-1.856-.2-2.637-.6a5.928 5.928 0 01-2.007-1.685c-.547-.723-.966-1.572-1.259-2.549-.293-.977-.44-2.041-.44-3.193zm3.867-.308v.308c0 .683.069 1.323.205 1.919a5.22 5.22 0 00.63 1.582c.284.449.64.8 1.07 1.054.429.254.942.381 1.538.381.801 0 1.455-.166 1.963-.498a3.202 3.202 0 001.171-1.392c.274-.595.45-1.264.528-2.006v-2.3a6.964 6.964 0 00-.322-1.626 4.015 4.015 0 00-.66-1.29 2.917 2.917 0 00-1.084-.849c-.439-.205-.962-.307-1.567-.307-.586 0-1.099.131-1.538.395-.44.254-.801.61-1.084 1.07a5.489 5.489 0 00-.645 1.596 8.948 8.948 0 00-.205 1.963zm22.574 4.673v-7.31c0-.537-.093-1-.279-1.391a2.007 2.007 0 00-.849-.909c-.381-.214-.865-.322-1.451-.322-.517 0-.971.088-1.362.264a2.007 2.007 0 00-.879.747 1.93 1.93 0 00-.307 1.084h-3.882c0-.654.156-1.274.469-1.86a4.958 4.958 0 011.333-1.582c.585-.47 1.284-.835 2.094-1.1.821-.263 1.739-.395 2.754-.395 1.201 0 2.271.205 3.208.616.947.4 1.69 1.006 2.227 1.816.547.81.82 1.831.82 3.062v6.914c0 .79.049 1.47.147 2.036a5.61 5.61 0 00.468 1.45V23h-3.94c-.186-.4-.327-.908-.425-1.523a11.9 11.9 0 01-.146-1.846zm.542-6.284l.029 2.3h-2.446c-.606 0-1.138.063-1.597.19-.459.117-.835.293-1.128.527a2.132 2.132 0 00-.659.82c-.147.313-.22.67-.22 1.07 0 .39.088.742.264 1.055.185.312.449.561.791.747.351.175.761.263 1.23.263.684 0 1.28-.136 1.787-.41.508-.283.904-.625 1.187-1.025.283-.4.434-.782.454-1.143l1.113 1.67c-.136.4-.342.825-.615 1.274a5.72 5.72 0 01-1.055 1.26c-.429.39-.947.713-1.552.967-.606.254-1.309.381-2.11.381-1.025 0-1.943-.205-2.754-.615-.81-.41-1.45-.972-1.919-1.685-.468-.713-.703-1.523-.703-2.431 0-.84.156-1.582.469-2.227a4.259 4.259 0 011.392-1.626c.615-.45 1.377-.786 2.285-1.01.918-.235 1.968-.352 3.149-.352h2.608zM329.335.5V23h-3.882V.5h3.882zm10.811 22.793c-1.202 0-2.281-.195-3.238-.586a7.11 7.11 0 01-2.446-1.626 7.472 7.472 0 01-1.538-2.446 8.515 8.515 0 01-.528-3.018v-.586c0-1.22.176-2.329.528-3.325.351-1.006.849-1.87 1.494-2.593a6.574 6.574 0 012.314-1.67c.899-.39 1.89-.586 2.974-.586 1.123 0 2.114.19 2.974.572a5.751 5.751 0 012.153 1.582c.576.683 1.011 1.504 1.304 2.46.293.948.439 1.998.439 3.15v1.626h-12.422v-2.666h8.614v-.293a4.675 4.675 0 00-.352-1.684 2.694 2.694 0 00-.996-1.231c-.449-.313-1.03-.469-1.743-.469-.576 0-1.079.127-1.509.381-.42.244-.772.596-1.055 1.055-.273.45-.478.986-.615 1.611a9.733 9.733 0 00-.205 2.08v.586c0 .664.088 1.28.264 1.846a4.42 4.42 0 00.805 1.48c.362.41.791.732 1.289.966.508.225 1.084.337 1.729.337.81 0 1.543-.156 2.197-.469a4.901 4.901 0 001.729-1.42l1.948 2.02c-.332.49-.781.958-1.348 1.407-.556.45-1.23.816-2.021 1.099-.791.273-1.704.41-2.739.41zm12.89-12.905V23h-3.867V7.15h3.662l.205 3.238zm4.819-3.34l-.058 3.603a6.842 6.842 0 00-.733-.088c-.263-.02-.512-.029-.747-.029-.595 0-1.118.083-1.567.25a2.93 2.93 0 00-1.128.688 3.036 3.036 0 00-.674 1.113c-.156.43-.244.918-.263 1.465l-.835-.103c0-1.006.102-1.938.307-2.798.205-.859.503-1.61.894-2.255.39-.645.879-1.143 1.465-1.495.595-.36 1.279-.542 2.05-.542.215 0 .445.02.689.059.254.03.454.073.6.132zm6.299.102V23h-3.882V7.15h3.882zm-3.808-2.021l2.871-4.453h4.277l-3.999 4.453h-3.149zm16.391 14.502v-7.31c0-.537-.092-1-.278-1.391a2.014 2.014 0 00-.85-.909c-.38-.214-.864-.322-1.45-.322-.517 0-.971.088-1.362.264a2.007 2.007 0 00-.879.747 1.931 1.931 0 00-.308 1.084h-3.881c0-.654.156-1.274.468-1.86a4.984 4.984 0 011.333-1.582c.586-.47 1.284-.835 2.095-1.1.82-.263 1.738-.395 2.754-.395 1.201 0 2.27.205 3.208.616.947.4 1.689 1.006 2.226 1.816.547.81.821 1.831.821 3.062v6.914c0 .79.049 1.47.146 2.036.108.556.264 1.04.469 1.45V23h-3.94c-.186-.4-.328-.908-.425-1.523a11.903 11.903 0 01-.147-1.846zm.542-6.284l.03 2.3h-2.447c-.605 0-1.137.063-1.596.19-.459.117-.835.293-1.128.527a2.132 2.132 0 00-.659.82c-.147.313-.22.67-.22 1.07 0 .39.088.742.263 1.055.186.312.45.561.791.747.352.175.762.263 1.231.263.684 0 1.279-.136 1.787-.41.508-.283.903-.625 1.187-1.025.283-.4.434-.782.454-1.143l1.113 1.67a6.59 6.59 0 01-.615 1.274c-.274.45-.625.87-1.055 1.26a5.37 5.37 0 01-1.553.967c-.605.254-1.308.381-2.109.381-1.025 0-1.943-.205-2.754-.615-.811-.41-1.45-.972-1.919-1.685-.469-.713-.703-1.523-.703-2.431 0-.84.156-1.582.469-2.227a4.265 4.265 0 011.391-1.626c.616-.45 1.377-.786 2.285-1.01.918-.235 1.968-.352 3.15-.352h2.607zm23.819 6.284V.5h3.896V23h-3.515l-.381-3.37zm-10.181-4.365v-.308c0-1.21.137-2.31.41-3.296.283-.996.694-1.85 1.231-2.563a5.64 5.64 0 011.948-1.656c.771-.39 1.645-.586 2.622-.586.947 0 1.772.19 2.476.572.712.38 1.318.923 1.816 1.626.508.703.913 1.538 1.216 2.505.302.957.522 2.011.659 3.164v.835a16.658 16.658 0 01-.659 3.09c-.303.938-.708 1.758-1.216 2.461a5.299 5.299 0 01-1.816 1.612c-.713.38-1.548.571-2.505.571-.967 0-1.836-.2-2.608-.6a5.727 5.727 0 01-1.948-1.685c-.527-.723-.933-1.572-1.216-2.549-.273-.977-.41-2.041-.41-3.193zm3.882-.308v.308c0 .683.058 1.323.176 1.919.117.595.307 1.123.571 1.582.264.449.6.8 1.011 1.054.42.254.927.381 1.523.381.762 0 1.387-.166 1.875-.498a3.378 3.378 0 001.157-1.392c.274-.595.45-1.264.528-2.006v-2.3a6.489 6.489 0 00-.308-1.626 3.848 3.848 0 00-.674-1.29 2.99 2.99 0 00-1.054-.849c-.42-.205-.918-.307-1.495-.307-.595 0-1.103.131-1.523.395-.42.254-.762.61-1.025 1.07a5.41 5.41 0 00-.586 1.596c-.118.606-.176 1.26-.176 1.963zm20.815 8.335c-1.201 0-2.28-.195-3.237-.586a7.1 7.1 0 01-2.446-1.626 7.472 7.472 0 01-1.538-2.446 8.515 8.515 0 01-.528-3.018v-.586c0-1.22.176-2.329.528-3.325.351-1.006.849-1.87 1.494-2.593a6.574 6.574 0 012.314-1.67c.899-.39 1.89-.586 2.974-.586 1.123 0 2.114.19 2.973.572.86.37 1.578.898 2.154 1.582.576.683 1.01 1.504 1.303 2.46.293.948.44 1.998.44 3.15v1.626h-12.422v-2.666h8.613v-.293a4.653 4.653 0 00-.351-1.684 2.694 2.694 0 00-.996-1.231c-.45-.313-1.031-.469-1.743-.469-.577 0-1.08.127-1.509.381-.42.244-.772.596-1.055 1.055-.273.45-.478.986-.615 1.611a9.733 9.733 0 00-.205 2.08v.586c0 .664.088 1.28.263 1.846.186.566.454 1.06.806 1.48.361.41.791.732 1.289.966.508.225 1.084.337 1.729.337.81 0 1.543-.156 2.197-.469a4.89 4.89 0 001.728-1.42l1.949 2.02c-.332.49-.782.958-1.348 1.407-.557.45-1.23.816-2.021 1.099-.792.273-1.705.41-2.74.41zm25.225-3.662v-7.31c0-.537-.093-1-.278-1.391a2.014 2.014 0 00-.85-.909c-.381-.214-.864-.322-1.45-.322-.518 0-.972.088-1.363.264a2.01 2.01 0 00-.878.747 1.923 1.923 0 00-.308 1.084h-3.882c0-.654.156-1.274.469-1.86a4.971 4.971 0 011.333-1.582c.586-.47 1.284-.835 2.095-1.1.82-.263 1.738-.395 2.753-.395 1.202 0 2.271.205 3.208.616.948.4 1.69 1.006 2.227 1.816.547.81.82 1.831.82 3.062v6.914c0 .79.049 1.47.147 2.036a5.61 5.61 0 00.469 1.45V23h-3.941c-.185-.4-.327-.908-.425-1.523a12.025 12.025 0 01-.146-1.846zm.542-6.284l.029 2.3h-2.446c-.606 0-1.138.063-1.597.19-.459.117-.835.293-1.128.527a2.141 2.141 0 00-.659.82c-.146.313-.22.67-.22 1.07 0 .39.088.742.264 1.055.186.312.449.561.791.747.352.175.762.263 1.231.263.683 0 1.279-.136 1.787-.41.507-.283.903-.625 1.186-1.025.283-.4.435-.782.454-1.143l1.114 1.67a6.54 6.54 0 01-.616 1.274c-.273.45-.625.87-1.054 1.26-.43.39-.948.713-1.553.967-.606.254-1.309.381-2.11.381-1.025 0-1.943-.205-2.753-.615-.811-.41-1.451-.972-1.919-1.685-.469-.713-.703-1.523-.703-2.431 0-.84.156-1.582.468-2.227a4.276 4.276 0 011.392-1.626c.615-.45 1.377-.786 2.285-1.01.918-.235 1.968-.352 3.149-.352h2.608zm10.708-2.96V23h-3.867V7.15h3.662l.205 3.238zm4.819-3.34l-.058 3.604a6.842 6.842 0 00-.733-.088c-.263-.02-.513-.029-.747-.029-.596 0-1.118.083-1.567.25a2.93 2.93 0 00-1.128.688 3.036 3.036 0 00-.674 1.113c-.156.43-.244.918-.264 1.465l-.835-.103c0-1.006.103-1.938.308-2.798.205-.859.503-1.61.894-2.255.39-.645.878-1.143 1.464-1.495.596-.36 1.28-.542 2.051-.542.215 0 .444.02.689.059.254.03.454.073.6.132zm5.991 3.34V23h-3.867V7.15h3.662l.205 3.238zm4.82-3.34l-.059 3.604a6.853 6.853 0 00-.732-.088c-.264-.02-.513-.029-.747-.029-.596 0-1.119.083-1.568.25a2.93 2.93 0 00-1.128.688 3.034 3.034 0 00-.673 1.113c-.157.43-.245.918-.264 1.465l-.835-.103c0-1.006.102-1.938.308-2.798.205-.859.502-1.61.893-2.255.391-.645.879-1.143 1.465-1.495.596-.36 1.279-.542 2.051-.542.215 0 .444.02.688.059.254.03.454.073.601.132zm8.95 16.246c-1.201 0-2.28-.195-3.237-.586a7.114 7.114 0 01-2.447-1.626 7.489 7.489 0 01-1.538-2.446 8.537 8.537 0 01-.527-3.018v-.586c0-1.22.176-2.329.527-3.325.352-1.006.85-1.87 1.494-2.593a6.578 6.578 0 012.315-1.67c.898-.39 1.89-.586 2.973-.586 1.124 0 2.115.19 2.974.572a5.751 5.751 0 012.153 1.582c.577.683 1.011 1.504 1.304 2.46.293.948.44 1.998.44 3.15v1.626h-12.422v-2.666h8.613v-.293a4.675 4.675 0 00-.352-1.684 2.682 2.682 0 00-.996-1.231c-.449-.313-1.03-.469-1.743-.469-.576 0-1.079.127-1.509.381-.42.244-.771.596-1.054 1.055-.274.45-.479.986-.616 1.611a9.798 9.798 0 00-.205 2.08v.586c0 .664.088 1.28.264 1.846.186.566.454 1.06.806 1.48.361.41.791.732 1.289.966.508.225 1.084.337 1.728.337.811 0 1.543-.156 2.198-.469a4.89 4.89 0 001.728-1.42l1.948 2.02c-.332.49-.781.958-1.347 1.407-.557.45-1.231.816-2.022 1.099-.791.273-1.704.41-2.739.41zM495.771 7.15h3.515v15.367c0 1.435-.312 2.651-.937 3.647-.616 1.006-1.48 1.768-2.593 2.285-1.113.528-2.407.791-3.882.791a8.998 8.998 0 01-2.065-.263 8.339 8.339 0 01-2.124-.835 5.256 5.256 0 01-1.685-1.45l1.743-2.286c.528.616 1.123 1.08 1.787 1.392a4.868 4.868 0 002.154.483c.781 0 1.445-.146 1.992-.44a2.892 2.892 0 001.274-1.259c.303-.547.454-1.22.454-2.021V10.769l.367-3.619zm-10.709 8.116v-.308c0-1.21.147-2.31.44-3.296.293-.996.713-1.85 1.26-2.563a5.822 5.822 0 012.007-1.656c.791-.39 1.679-.586 2.666-.586 1.044 0 1.923.19 2.636.572.723.38 1.319.923 1.787 1.626.479.703.85 1.538 1.114 2.505.273.957.483 2.011.63 3.164v.835a16.576 16.576 0 01-.66 3.09c-.293.938-.683 1.758-1.171 2.461a5.126 5.126 0 01-1.817 1.612c-.723.38-1.572.571-2.549.571-.976 0-1.855-.2-2.636-.6a5.909 5.909 0 01-2.007-1.685c-.547-.723-.967-1.572-1.26-2.549-.293-.977-.44-2.041-.44-3.193zm3.868-.308v.308c0 .683.068 1.323.205 1.919a5.17 5.17 0 00.63 1.582c.283.449.639.8 1.069 1.054.43.254.942.381 1.538.381.801 0 1.455-.166 1.963-.498a3.204 3.204 0 001.172-1.392 6.39 6.39 0 00.527-2.006v-2.3a6.964 6.964 0 00-.322-1.626 4.013 4.013 0 00-.659-1.29 2.925 2.925 0 00-1.084-.849c-.44-.205-.962-.307-1.568-.307-.586 0-1.098.131-1.538.395-.439.254-.801.61-1.084 1.07a5.46 5.46 0 00-.644 1.596 8.887 8.887 0 00-.205 1.963zM506.874.5V23h-3.882V.5h3.882zm3.003 14.736v-.307c0-1.162.166-2.232.498-3.208.332-.987.815-1.841 1.45-2.564a6.53 6.53 0 012.329-1.684c.918-.41 1.963-.616 3.135-.616 1.191 0 2.246.205 3.164.616.928.4 1.709.962 2.344 1.684.635.723 1.118 1.577 1.45 2.564.332.976.498 2.046.498 3.208v.307c0 1.153-.166 2.222-.498 3.208a7.6 7.6 0 01-1.45 2.564 6.529 6.529 0 01-2.329 1.684c-.918.4-1.968.601-3.15.601-1.172 0-2.221-.2-3.149-.6a6.499 6.499 0 01-2.344-1.685 7.6 7.6 0 01-1.45-2.564c-.332-.986-.498-2.055-.498-3.208zm3.867-.307v.307c0 .694.068 1.343.205 1.949.137.605.347 1.137.63 1.596.283.46.65.82 1.099 1.084.459.254 1.006.381 1.64.381.625 0 1.162-.127 1.612-.38a3.151 3.151 0 001.098-1.085c.293-.459.508-.991.645-1.596a8.816 8.816 0 00.205-1.949v-.307c0-.684-.068-1.324-.205-1.92a4.986 4.986 0 00-.645-1.596 3.073 3.073 0 00-1.113-1.098c-.449-.274-.991-.41-1.626-.41-.625 0-1.162.136-1.611.41-.449.263-.816.63-1.099 1.098a5.21 5.21 0 00-.63 1.597 8.549 8.549 0 00-.205 1.919zm22.529 3.735c0-.332-.087-.63-.263-.894-.176-.263-.508-.502-.996-.717-.479-.225-1.182-.435-2.11-.63a15.563 15.563 0 01-2.27-.66 7.33 7.33 0 01-1.787-.951 4.325 4.325 0 01-1.172-1.333c-.274-.518-.41-1.114-.41-1.788 0-.654.141-1.27.424-1.845a4.529 4.529 0 011.231-1.538c.537-.45 1.191-.801 1.963-1.055.771-.264 1.64-.396 2.607-.396 1.348 0 2.505.22 3.472.66.976.439 1.724 1.045 2.241 1.816.518.762.776 1.621.776 2.578h-3.867c0-.42-.097-.8-.293-1.142-.185-.342-.473-.616-.864-.82-.391-.216-.884-.323-1.479-.323-.538 0-.992.088-1.363.264-.361.175-.634.405-.82.688a1.671 1.671 0 00-.278.938c0 .254.048.483.146.688.108.195.278.376.513.542.234.166.552.317.952.454.41.137.913.269 1.509.396 1.181.234 2.212.547 3.091.937.888.381 1.582.889 2.08 1.524.498.634.747 1.445.747 2.431 0 .703-.152 1.348-.454 1.934a4.488 4.488 0 01-1.319 1.509c-.576.43-1.264.766-2.065 1.01-.801.235-1.704.352-2.71.352-1.455 0-2.686-.259-3.692-.776-1.005-.528-1.767-1.192-2.285-1.993-.517-.81-.776-1.65-.776-2.52h3.706c.029.616.195 1.11.498 1.48.303.371.684.64 1.143.806.468.156.962.234 1.479.234.586 0 1.079-.078 1.48-.234.4-.166.703-.386.908-.66.205-.282.307-.605.307-.966zm18.838 2.578l4.248-14.092h4.146l-6.358 18.252c-.146.391-.336.816-.571 1.275a5.397 5.397 0 01-.908 1.303c-.381.42-.859.762-1.436 1.026-.566.264-1.254.395-2.065.395-.352 0-.664-.024-.938-.073a11.77 11.77 0 01-.864-.19v-2.9c.098.01.21.014.337.014.137.01.254.015.352.015.566 0 1.035-.069 1.406-.206.371-.126.669-.336.894-.63.234-.283.429-.654.585-1.113l1.172-3.076zM553.017 7.15l3.588 11.675.63 4.087-2.666.483-5.727-16.245h4.175zm26.953 16.143c-1.201 0-2.281-.195-3.238-.586a7.11 7.11 0 01-2.446-1.626 7.472 7.472 0 01-1.538-2.446 8.514 8.514 0 01-.527-3.018v-.586c0-1.22.175-2.329.527-3.325.352-1.006.85-1.87 1.494-2.593a6.578 6.578 0 012.315-1.67c.898-.39 1.889-.586 2.973-.586 1.123 0 2.115.19 2.974.572a5.751 5.751 0 012.153 1.582c.576.683 1.011 1.504 1.304 2.46.293.948.439 1.998.439 3.15v1.626h-12.421v-2.666h8.613v-.293a4.675 4.675 0 00-.352-1.684 2.694 2.694 0 00-.996-1.231c-.449-.313-1.03-.469-1.743-.469-.576 0-1.079.127-1.509.381-.42.244-.771.596-1.054 1.055-.274.45-.479.986-.616 1.611a9.798 9.798 0 00-.205 2.08v.586c0 .664.088 1.28.264 1.846.185.566.454 1.06.806 1.48.361.41.791.732 1.289.966.507.225 1.084.337 1.728.337.811 0 1.543-.156 2.197-.469a4.893 4.893 0 001.729-1.42l1.948 2.02c-.332.49-.781.958-1.348 1.407-.556.45-1.23.816-2.021 1.099-.791.273-1.704.41-2.739.41zm14.077-3.223l3.691-12.92h4.043L596.347 23h-2.461l.161-2.93zm-2.695-12.92l3.735 12.95.132 2.9h-2.476l-5.449-15.85h4.058zm19.379 16.143c-1.201 0-2.28-.195-3.237-.586a7.11 7.11 0 01-2.446-1.626 7.472 7.472 0 01-1.538-2.446 8.515 8.515 0 01-.528-3.018v-.586c0-1.22.176-2.329.528-3.325.351-1.006.849-1.87 1.494-2.593a6.574 6.574 0 012.314-1.67c.899-.39 1.89-.586 2.974-.586 1.123 0 2.114.19 2.974.572a5.751 5.751 0 012.153 1.582c.576.683 1.011 1.504 1.304 2.46.293.948.439 1.998.439 3.15v1.626H604.74v-2.666h8.614v-.293a4.675 4.675 0 00-.352-1.684 2.694 2.694 0 00-.996-1.231c-.449-.313-1.03-.469-1.743-.469-.576 0-1.079.127-1.509.381-.42.244-.772.596-1.055 1.055-.273.45-.478.986-.615 1.611a9.733 9.733 0 00-.205 2.08v.586c0 .664.088 1.28.264 1.846a4.42 4.42 0 00.805 1.48c.362.41.791.732 1.289.966.508.225 1.084.337 1.729.337.81 0 1.543-.156 2.197-.469a4.901 4.901 0 001.729-1.42l1.948 2.02c-.332.49-.781.958-1.348 1.407-.556.45-1.23.816-2.021 1.099-.791.273-1.704.41-2.74.41zm12.818-12.759V23h-3.867V7.15h3.632l.235 3.384zm-.615 3.97h-1.143c.01-1.152.166-2.197.469-3.135.302-.937.727-1.743 1.274-2.417a5.73 5.73 0 011.978-1.553c.761-.36 1.611-.542 2.549-.542.761 0 1.45.108 2.065.323a3.894 3.894 0 011.582 1.025c.449.469.791 1.084 1.025 1.846.245.752.367 1.68.367 2.783V23h-3.897V12.805c0-.723-.107-1.294-.322-1.714a1.798 1.798 0 00-.908-.894c-.391-.175-.874-.263-1.451-.263-.595 0-1.118.122-1.567.366-.439.234-.81.561-1.113.981-.293.42-.518.904-.674 1.45a6.439 6.439 0 00-.234 1.773zm21.079-7.354v2.784h-9.082V7.15h9.082zm-6.651-3.896h3.882V18.43c0 .468.064.83.191 1.084a.98.98 0 00.571.512c.254.088.556.132.908.132.254 0 .488-.014.703-.044.215-.029.396-.058.542-.088l.015 2.9a7.264 7.264 0 01-1.099.264c-.4.069-.854.103-1.362.103-.869 0-1.631-.146-2.285-.44-.655-.302-1.162-.786-1.524-1.45-.361-.673-.542-1.562-.542-2.666V3.254zm8.159 11.982v-.307c0-1.162.167-2.232.499-3.208.332-.987.815-1.841 1.45-2.564a6.52 6.52 0 012.329-1.684c.918-.41 1.963-.616 3.135-.616 1.191 0 2.246.205 3.164.616.927.4 1.709.962 2.343 1.684a7.42 7.42 0 011.451 2.564c.332.976.498 2.046.498 3.208v.307c0 1.153-.166 2.222-.498 3.208a7.603 7.603 0 01-1.451 2.564 6.52 6.52 0 01-2.329 1.684c-.918.4-1.967.601-3.149.601-1.172 0-2.222-.2-3.15-.6a6.495 6.495 0 01-2.343-1.685 7.6 7.6 0 01-1.45-2.564c-.332-.986-.499-2.055-.499-3.208zm3.868-.307v.307c0 .694.068 1.343.205 1.949.136.605.346 1.137.63 1.596.283.46.649.82 1.098 1.084.459.254 1.006.381 1.641.381.625 0 1.162-.127 1.611-.38a3.154 3.154 0 001.099-1.085c.293-.459.508-.991.644-1.596a8.816 8.816 0 00.205-1.949v-.307c0-.684-.068-1.324-.205-1.92a4.963 4.963 0 00-.644-1.596 3.073 3.073 0 00-1.113-1.098c-.45-.274-.992-.41-1.626-.41-.625 0-1.163.136-1.612.41-.449.263-.815.63-1.098 1.098a5.16 5.16 0 00-.63 1.597 8.549 8.549 0 00-.205 1.919zm22.529 3.735c0-.332-.088-.63-.264-.894-.175-.263-.508-.502-.996-.717-.478-.225-1.181-.435-2.109-.63a15.613 15.613 0 01-2.271-.66 7.349 7.349 0 01-1.787-.951 4.338 4.338 0 01-1.172-1.333c-.273-.518-.41-1.114-.41-1.788 0-.654.142-1.27.425-1.845a4.514 4.514 0 011.23-1.538c.538-.45 1.192-.801 1.963-1.055.772-.264 1.641-.396 2.608-.396 1.347 0 2.505.22 3.471.66.977.439 1.724 1.045 2.242 1.816.517.762.776 1.621.776 2.578h-3.867c0-.42-.098-.8-.293-1.142-.186-.342-.474-.616-.864-.82-.391-.216-.884-.323-1.48-.323-.537 0-.991.088-1.362.264-.362.175-.635.405-.82.688a1.672 1.672 0 00-.279.938c0 .254.049.483.147.688.107.195.278.376.512.542.235.166.552.317.953.454.41.137.913.269 1.508.396 1.182.234 2.212.547 3.091.937.889.381 1.582.889 2.08 1.524.498.634.747 1.445.747 2.431 0 .703-.151 1.348-.454 1.934a4.485 4.485 0 01-1.318 1.509c-.576.43-1.265.766-2.066 1.01-.8.235-1.704.352-2.71.352-1.455 0-2.685-.259-3.691-.776-1.006-.528-1.768-1.192-2.285-1.993-.518-.81-.777-1.65-.777-2.52h3.707c.029.616.195 1.11.498 1.48.302.371.683.64 1.142.806.469.156.962.234 1.48.234.586 0 1.079-.078 1.479-.234.401-.166.703-.386.908-.66.205-.282.308-.605.308-.966zm18.061-8.276V23h-3.867V7.15h3.662l.205 3.238zm4.82-3.34l-.059 3.603a6.853 6.853 0 00-.732-.088c-.264-.02-.513-.029-.747-.029-.596 0-1.118.083-1.568.25a2.93 2.93 0 00-1.128.688 3.034 3.034 0 00-.673 1.113c-.157.43-.245.918-.264 1.465l-.835-.103c0-1.006.103-1.938.308-2.798.205-.859.503-1.61.893-2.255.391-.645.879-1.143 1.465-1.495.596-.36 1.279-.542 2.051-.542.215 0 .444.02.688.059.254.03.454.073.601.132zm8.95 16.245c-1.201 0-2.28-.195-3.237-.586a7.114 7.114 0 01-2.447-1.626 7.489 7.489 0 01-1.538-2.446 8.537 8.537 0 01-.527-3.018v-.586c0-1.22.176-2.329.527-3.325.352-1.006.85-1.87 1.494-2.593a6.587 6.587 0 012.315-1.67c.898-.39 1.89-.586 2.974-.586 1.123 0 2.114.19 2.973.572.86.37 1.577.898 2.154 1.582.576.683 1.01 1.504 1.303 2.46.293.948.44 1.998.44 3.15v1.626h-12.422v-2.666h8.613v-.293a4.674 4.674 0 00-.351-1.684 2.69 2.69 0 00-.997-1.231c-.449-.313-1.03-.469-1.743-.469-.576 0-1.079.127-1.509.381a3.032 3.032 0 00-1.054 1.055c-.274.45-.479.986-.615 1.611a9.73 9.73 0 00-.206 2.08v.586c0 .664.088 1.28.264 1.846.186.566.454 1.06.806 1.48.361.41.791.732 1.289.966.508.225 1.084.337 1.728.337.811 0 1.543-.156 2.198-.469a4.89 4.89 0 001.728-1.42l1.948 2.02c-.332.49-.781.958-1.347 1.407-.557.45-1.231.816-2.022 1.099-.791.273-1.704.41-2.739.41zm17.754-3.662v-7.31c0-.537-.093-1-.278-1.391a2.014 2.014 0 00-.85-.909c-.381-.214-.864-.322-1.45-.322-.518 0-.972.088-1.363.264a2.01 2.01 0 00-.878.747 1.931 1.931 0 00-.308 1.084h-3.882c0-.654.156-1.274.469-1.86a4.971 4.971 0 011.333-1.582c.586-.47 1.284-.835 2.095-1.1.82-.263 1.738-.395 2.754-.395 1.201 0 2.27.205 3.208.616.947.4 1.689 1.006 2.226 1.816.547.81.82 1.831.82 3.062v6.914c0 .79.049 1.47.147 2.036a5.61 5.61 0 00.469 1.45V23h-3.941c-.185-.4-.327-.908-.425-1.523a12.025 12.025 0 01-.146-1.846zm.542-6.284l.029 2.3h-2.446c-.606 0-1.138.063-1.597.19-.459.117-.835.293-1.128.527a2.141 2.141 0 00-.659.82c-.146.313-.22.67-.22 1.07 0 .39.088.742.264 1.055.186.312.449.561.791.747.352.175.762.263 1.231.263.683 0 1.279-.136 1.787-.41.507-.283.903-.625 1.186-1.025.283-.4.435-.782.454-1.143l1.114 1.67a6.54 6.54 0 01-.616 1.274c-.273.45-.625.87-1.054 1.26-.43.39-.948.713-1.553.967-.606.254-1.309.381-2.109.381-1.026 0-1.944-.205-2.754-.615-.811-.41-1.451-.972-1.919-1.685-.469-.713-.703-1.523-.703-2.431 0-.84.156-1.582.468-2.227a4.276 4.276 0 011.392-1.626c.615-.45 1.377-.786 2.285-1.01.918-.235 1.968-.352 3.15-.352h2.607zM732.987.5V23h-3.882V.5h3.882zm10.811 22.793c-1.201 0-2.28-.195-3.237-.586a7.114 7.114 0 01-2.447-1.626 7.489 7.489 0 01-1.538-2.446 8.537 8.537 0 01-.527-3.018v-.586c0-1.22.176-2.329.527-3.325.352-1.006.85-1.87 1.494-2.593a6.578 6.578 0 012.315-1.67c.898-.39 1.889-.586 2.973-.586 1.123 0 2.115.19 2.974.572a5.751 5.751 0 012.153 1.582c.577.683 1.011 1.504 1.304 2.46.293.948.44 1.998.44 3.15v1.626h-12.422v-2.666h8.613v-.293a4.675 4.675 0 00-.352-1.684 2.688 2.688 0 00-.996-1.231c-.449-.313-1.03-.469-1.743-.469-.576 0-1.079.127-1.509.381-.42.244-.771.596-1.054 1.055-.274.45-.479.986-.616 1.611a9.798 9.798 0 00-.205 2.08v.586c0 .664.088 1.28.264 1.846.186.566.454 1.06.806 1.48.361.41.791.732 1.289.966.508.225 1.084.337 1.728.337.811 0 1.543-.156 2.197-.469a4.884 4.884 0 001.729-1.42l1.948 2.02c-.332.49-.781.958-1.347 1.407-.557.45-1.231.816-2.022 1.099-.791.273-1.704.41-2.739.41zm17.739-4.629c0-.332-.088-.63-.264-.894-.175-.263-.507-.502-.996-.717-.478-.225-1.181-.435-2.109-.63a15.613 15.613 0 01-2.271-.66 7.349 7.349 0 01-1.787-.951 4.338 4.338 0 01-1.172-1.333c-.273-.518-.41-1.114-.41-1.788 0-.654.142-1.27.425-1.845a4.505 4.505 0 011.231-1.538c.537-.45 1.191-.801 1.962-1.055.772-.264 1.641-.396 2.608-.396 1.348 0 2.505.22 3.472.66.976.439 1.723 1.045 2.241 1.816.517.762.776 1.621.776 2.578h-3.867c0-.42-.098-.8-.293-1.142-.186-.342-.474-.616-.864-.82-.391-.216-.884-.323-1.48-.323-.537 0-.991.088-1.362.264-.361.175-.635.405-.82.688a1.672 1.672 0 00-.279.938c0 .254.049.483.147.688.107.195.278.376.513.542.234.166.551.317.952.454.41.137.913.269 1.508.396 1.182.234 2.212.547 3.091.937.889.381 1.582.889 2.08 1.524.498.634.747 1.445.747 2.431 0 .703-.151 1.348-.454 1.934-.302.576-.742 1.079-1.318 1.509-.576.43-1.265.766-2.065 1.01-.801.235-1.705.352-2.71.352-1.456 0-2.686-.259-3.692-.776-1.006-.528-1.767-1.192-2.285-1.993-.518-.81-.776-1.65-.776-2.52h3.706c.029.616.195 1.11.498 1.48.302.371.683.64 1.142.806.469.156.962.234 1.48.234.586 0 1.079-.078 1.479-.234.401-.166.703-.386.908-.66.206-.282.308-.605.308-.966zm6.885 2.446c0-.586.2-1.079.6-1.48.401-.4.943-.6 1.626-.6.684 0 1.226.2 1.626.6.401.401.601.894.601 1.48 0 .576-.2 1.065-.601 1.465-.4.39-.942.586-1.626.586-.683 0-1.225-.195-1.626-.586-.4-.4-.6-.889-.6-1.465z" fill="#fff"/></svg>