<svg width="675" height="32" viewBox="0 0 675 32" fill="none" xmlns="http://www.w3.org/2000/svg"><path d="M9.27 30.678H3.078l.04-4.57H9.27c1.536 0 2.832-.345 3.886-1.036 1.055-.703 1.85-1.725 2.383-3.066.547-1.341.82-2.962.82-4.863v-1.387c0-1.458-.156-2.74-.468-3.848-.3-1.106-.75-2.037-1.348-2.793a5.637 5.637 0 00-2.207-1.699c-.873-.39-1.875-.586-3.008-.586H2.961V2.24h6.367c1.901 0 3.64.326 5.215.977a11.76 11.76 0 014.121 2.754c1.159 1.198 2.05 2.63 2.676 4.297.638 1.653.957 3.496.957 5.527v1.348c0 2.018-.32 3.86-.957 5.527-.625 1.667-1.517 3.1-2.676 4.297-1.146 1.185-2.52 2.103-4.121 2.754-1.589.638-3.346.957-5.273.957zM6.398 2.24v28.438H.54V2.24H6.4zM35.93 31.068c-1.64 0-3.112-.26-4.414-.78-1.302-.535-2.41-1.27-3.32-2.208a9.808 9.808 0 01-2.071-3.261 10.981 10.981 0 01-.723-3.985v-.781c0-1.602.228-3.067.684-4.395.456-1.328 1.107-2.48 1.953-3.457a8.578 8.578 0 013.125-2.246c1.224-.534 2.604-.8 4.14-.8 1.498 0 2.826.247 3.985.742 1.159.495 2.129 1.198 2.91 2.109.794.912 1.393 2.005 1.797 3.281.404 1.263.606 2.67.606 4.219v2.344H27.805V18.1h11.27v-.43c0-.781-.144-1.478-.43-2.09a3.317 3.317 0 00-1.25-1.484c-.56-.365-1.277-.547-2.149-.547-.742 0-1.38.163-1.914.488-.534.326-.97.781-1.309 1.367-.325.586-.573 1.276-.742 2.07-.156.782-.234 1.641-.234 2.579v.781c0 .846.117 1.628.351 2.344a5.708 5.708 0 001.036 1.855c.455.521 1.002.925 1.64 1.211.651.287 1.387.43 2.207.43a6.85 6.85 0 002.832-.586 6.131 6.131 0 002.285-1.816l2.735 2.968c-.443.638-1.048 1.25-1.817 1.836-.755.586-1.666 1.068-2.734 1.446-1.068.364-2.285.547-3.652.547zm23.3-6.23c0-.404-.117-.768-.351-1.094-.234-.325-.67-.625-1.309-.898-.625-.287-1.53-.547-2.715-.781a21.162 21.162 0 01-2.988-.88c-.911-.364-1.706-.8-2.383-1.308a5.69 5.69 0 01-1.562-1.797c-.378-.703-.566-1.504-.566-2.402 0-.886.188-1.719.566-2.5a6.447 6.447 0 011.66-2.07c.73-.612 1.615-1.088 2.656-1.426 1.055-.352 2.24-.528 3.555-.528 1.836 0 3.411.293 4.727.88 1.328.585 2.343 1.393 3.046 2.421.717 1.016 1.075 2.175 1.075 3.477h-5.625a3.01 3.01 0 00-.352-1.465c-.221-.443-.573-.788-1.055-1.035-.468-.26-1.08-.39-1.836-.39-.625 0-1.165.11-1.62.331-.456.209-.808.495-1.055.86a2.067 2.067 0 00-.352 1.171c0 .326.065.619.195.88.144.247.371.475.684.683.313.208.716.404 1.21.586.509.17 1.134.325 1.876.469 1.523.312 2.884.722 4.082 1.23 1.198.495 2.148 1.172 2.852 2.031.703.847 1.054 1.96 1.054 3.34 0 .938-.208 1.797-.625 2.578-.416.782-1.015 1.465-1.797 2.051-.78.573-1.718 1.022-2.812 1.348-1.08.312-2.298.468-3.653.468-1.966 0-3.632-.351-5-1.054-1.354-.703-2.382-1.595-3.085-2.676-.69-1.094-1.036-2.213-1.036-3.36h5.332c.026.769.222 1.387.586 1.856a3.2 3.2 0 001.426 1.016 5.615 5.615 0 001.895.312c.729 0 1.334-.097 1.816-.293.482-.208.846-.481 1.094-.82.26-.352.39-.755.39-1.21zm17.852 1.836c.69 0 1.302-.13 1.836-.39.534-.274.95-.652 1.25-1.133.313-.495.475-1.075.488-1.739h5.293c-.013 1.485-.41 2.806-1.191 3.965-.781 1.146-1.83 2.05-3.145 2.715-1.315.651-2.786.977-4.414.977-1.64 0-3.073-.274-4.297-.82-1.21-.548-2.22-1.303-3.027-2.266-.807-.977-1.413-2.11-1.816-3.399-.404-1.302-.606-2.695-.606-4.18v-.566c0-1.497.202-2.89.606-4.18.403-1.302 1.009-2.434 1.816-3.398.807-.977 1.816-1.738 3.027-2.285 1.211-.547 2.63-.82 4.258-.82 1.732 0 3.249.332 4.55.996a7.42 7.42 0 013.087 2.851c.755 1.224 1.14 2.676 1.152 4.356h-5.293a4.406 4.406 0 00-.449-1.915 3.239 3.239 0 00-1.21-1.367c-.522-.351-1.166-.527-1.934-.527-.82 0-1.491.176-2.012.527-.521.339-.925.808-1.211 1.407a7.007 7.007 0 00-.606 2.011 16.86 16.86 0 00-.156 2.344v.566c0 .82.052 1.609.156 2.364.105.755.3 1.425.586 2.011.3.586.71 1.049 1.23 1.387.522.339 1.199.508 2.032.508zm24.629-1.055V9.545h5.625v21.133h-5.293l-.332-5.059zm.625-4.336l1.66-.039c0 1.407-.163 2.715-.488 3.926-.326 1.198-.814 2.24-1.465 3.125a6.84 6.84 0 01-2.461 2.05c-.99.483-2.155.724-3.496.724-1.029 0-1.98-.144-2.852-.43a5.806 5.806 0 01-2.226-1.387c-.612-.638-1.094-1.452-1.445-2.441-.339-1.003-.508-2.207-.508-3.614V9.545h5.625v13.691c0 .625.071 1.153.214 1.582.157.43.372.782.645 1.055.273.274.593.469.957.586.378.117.794.176 1.25.176 1.159 0 2.07-.234 2.734-.703a3.701 3.701 0 001.426-1.914c.287-.82.43-1.732.43-2.735zM111.633.678h5.625v25.156l-.567 4.844h-5.058v-30zm19.004 19.219v.41c0 1.575-.17 3.02-.508 4.336-.326 1.315-.833 2.454-1.524 3.418a7.304 7.304 0 01-2.578 2.226c-1.015.521-2.213.782-3.593.782-1.289 0-2.409-.26-3.36-.782-.937-.52-1.725-1.256-2.363-2.207-.638-.95-1.152-2.063-1.543-3.34a25.35 25.35 0 01-.879-4.18v-.898a25.35 25.35 0 01.879-4.18c.391-1.275.905-2.389 1.543-3.34.638-.95 1.426-1.685 2.363-2.206.938-.521 2.044-.782 3.321-.782 1.393 0 2.604.267 3.632.801a6.85 6.85 0 012.578 2.227c.691.95 1.198 2.083 1.524 3.398.338 1.302.508 2.741.508 4.317zm-5.625.41v-.41c0-.86-.065-1.667-.196-2.422-.117-.768-.325-1.439-.625-2.012a3.528 3.528 0 00-1.23-1.387c-.508-.338-1.165-.508-1.973-.508-.768 0-1.419.13-1.953.391a3.62 3.62 0 00-1.328 1.094c-.339.469-.592 1.029-.762 1.68a10.277 10.277 0 00-.312 2.109v2.559c.039 1.028.208 1.94.508 2.734.312.781.781 1.4 1.406 1.855.638.443 1.465.665 2.48.665.795 0 1.452-.157 1.973-.47a3.156 3.156 0 001.211-1.327c.299-.573.508-1.244.625-2.012.117-.781.176-1.628.176-2.54zm14.746-6.152v16.523h-5.625V9.545h5.293l.332 4.61zm6.367-4.747l-.098 5.215a13.558 13.558 0 00-.996-.097c-.377-.04-.722-.059-1.035-.059-.794 0-1.484.104-2.07.313a3.698 3.698 0 00-1.446.878 3.84 3.84 0 00-.859 1.426c-.182.56-.286 1.198-.312 1.914l-1.133-.351c0-1.367.136-2.624.41-3.77.273-1.159.671-2.168 1.191-3.027.534-.86 1.185-1.524 1.953-1.992.769-.47 1.648-.704 2.637-.704.313 0 .632.027.957.079.326.039.593.097.801.175zm11.992 21.66c-1.64 0-3.112-.26-4.414-.78-1.302-.535-2.409-1.27-3.32-2.208a9.804 9.804 0 01-2.071-3.261 10.998 10.998 0 01-.722-3.985v-.781c0-1.602.228-3.067.683-4.395.456-1.328 1.107-2.48 1.954-3.457a8.576 8.576 0 013.125-2.246c1.224-.534 2.604-.8 4.14-.8 1.498 0 2.826.247 3.985.742a7.82 7.82 0 012.91 2.109c.794.912 1.393 2.005 1.797 3.281.403 1.263.605 2.67.605 4.219v2.344h-16.797V18.1h11.27v-.43c0-.781-.144-1.478-.43-2.09a3.314 3.314 0 00-1.25-1.484c-.56-.365-1.276-.547-2.148-.547-.743 0-1.381.163-1.914.488a3.77 3.77 0 00-1.309 1.367c-.326.586-.573 1.276-.742 2.07a13.11 13.11 0 00-.235 2.579v.781c0 .846.118 1.628.352 2.344a5.695 5.695 0 001.035 1.855c.456.521 1.003.925 1.641 1.211.651.287 1.386.43 2.207.43a6.854 6.854 0 002.832-.586 6.134 6.134 0 002.285-1.816l2.734 2.968c-.442.638-1.048 1.25-1.816 1.836-.755.586-1.667 1.068-2.734 1.446-1.068.364-2.286.547-3.653.547zM185.891.678v30h-5.645v-30h5.645zm16.054 25.234v-9.414c0-.677-.11-1.256-.332-1.738a2.468 2.468 0 00-1.035-1.152c-.456-.274-1.048-.41-1.777-.41-.625 0-1.166.11-1.621.332a2.344 2.344 0 00-1.055.917c-.247.391-.371.853-.371 1.387h-5.625c0-.898.208-1.751.625-2.558.417-.808 1.022-1.517 1.816-2.13.795-.624 1.739-1.113 2.832-1.464 1.107-.352 2.344-.528 3.711-.528 1.641 0 3.099.274 4.375.82 1.276.548 2.279 1.368 3.008 2.462.742 1.094 1.113 2.46 1.113 4.101v9.043c0 1.16.072 2.11.215 2.852.143.729.352 1.367.625 1.914v.332h-5.683c-.274-.573-.482-1.29-.625-2.149a17.6 17.6 0 01-.196-2.617zm.743-8.105l.039 3.183h-3.145c-.742 0-1.387.085-1.934.254-.546.17-.996.41-1.347.723-.352.3-.612.651-.781 1.055a3.633 3.633 0 00-.235 1.328c0 .482.111.918.332 1.308.222.378.541.677.957.899.417.208.905.312 1.465.312.846 0 1.582-.169 2.207-.508.625-.338 1.107-.755 1.445-1.25.352-.494.534-.963.547-1.406l1.485 2.383a9.672 9.672 0 01-.86 1.66 7.76 7.76 0 01-1.347 1.621 6.958 6.958 0 01-1.973 1.23c-.768.313-1.68.47-2.734.47-1.342 0-2.559-.267-3.653-.801-1.08-.547-1.94-1.296-2.578-2.246-.625-.964-.937-2.058-.937-3.282 0-1.106.208-2.09.625-2.949a5.743 5.743 0 011.836-2.168c.82-.599 1.842-1.048 3.066-1.347 1.224-.313 2.643-.47 4.258-.47h3.262zm30.703.39h-7.305l-.039-4.023h6.133c1.08 0 1.966-.137 2.656-.41.69-.287 1.204-.697 1.543-1.23.351-.548.527-1.212.527-1.993 0-.885-.169-1.601-.508-2.148-.325-.547-.839-.944-1.543-1.192-.69-.247-1.582-.37-2.675-.37h-4.063v23.847h-5.859V2.24h9.922c1.653 0 3.131.157 4.433.47 1.315.312 2.429.787 3.34 1.425a6.342 6.342 0 012.09 2.422c.482.963.723 2.11.723 3.437a6.718 6.718 0 01-.801 3.242c-.521.99-1.348 1.797-2.481 2.422-1.119.625-2.584.97-4.394 1.036l-1.699 1.503zm-.254 12.48h-8.653l2.286-4.57h6.367c1.028 0 1.868-.162 2.519-.488.651-.338 1.133-.794 1.446-1.367.312-.573.468-1.23.468-1.973 0-.833-.143-1.555-.429-2.168a2.903 2.903 0 00-1.329-1.406c-.611-.338-1.419-.508-2.421-.508h-5.645l.039-4.023h7.031l1.348 1.582c1.732-.026 3.125.28 4.18.918 1.067.625 1.842 1.439 2.324 2.441a7.181 7.181 0 01.742 3.223c0 1.823-.397 3.36-1.191 4.61-.795 1.236-1.96 2.167-3.496 2.792-1.524.625-3.386.938-5.586.938zm24.043.392c-1.641 0-3.112-.26-4.414-.782-1.302-.534-2.409-1.27-3.321-2.207a9.817 9.817 0 01-2.07-3.261 10.977 10.977 0 01-.723-3.985v-.781c0-1.602.228-3.067.684-4.395.456-1.328 1.107-2.48 1.953-3.457a8.576 8.576 0 013.125-2.246c1.224-.534 2.604-.8 4.141-.8 1.497 0 2.825.247 3.984.742 1.159.495 2.129 1.198 2.91 2.109.794.912 1.393 2.005 1.797 3.281.404 1.263.606 2.67.606 4.219v2.344h-16.797V18.1h11.269v-.43c0-.781-.143-1.478-.429-2.09a3.327 3.327 0 00-1.25-1.484c-.56-.365-1.277-.547-2.149-.547-.742 0-1.38.163-1.914.488-.534.326-.97.781-1.309 1.367-.325.586-.572 1.276-.742 2.07a13.19 13.19 0 00-.234 2.579v.781c0 .846.117 1.628.351 2.344a5.715 5.715 0 001.036 1.855c.455.521 1.002.925 1.64 1.211.651.287 1.387.43 2.207.43 1.016 0 1.96-.195 2.832-.586a6.126 6.126 0 002.285-1.816l2.735 2.968c-.443.638-1.048 1.25-1.817 1.836-.755.586-1.666 1.068-2.734 1.446-1.068.364-2.285.547-3.652.547zM274.992.678v30h-5.644v-30h5.644zm10.586 0v30h-5.644v-30h5.644zm14.375 30.39c-1.641 0-3.112-.26-4.414-.78-1.302-.535-2.409-1.27-3.32-2.208a9.804 9.804 0 01-2.071-3.261 10.998 10.998 0 01-.722-3.985v-.781c0-1.602.228-3.067.683-4.395.456-1.328 1.107-2.48 1.953-3.457a8.588 8.588 0 013.126-2.246c1.223-.534 2.604-.8 4.14-.8 1.498 0 2.826.247 3.984.742a7.816 7.816 0 012.911 2.109c.794.912 1.393 2.005 1.797 3.281.403 1.263.605 2.67.605 4.219v2.344h-16.797V18.1h11.27v-.43c0-.781-.144-1.478-.43-2.09a3.314 3.314 0 00-1.25-1.484c-.56-.365-1.276-.547-2.148-.547-.743 0-1.381.163-1.915.488-.533.326-.97.781-1.308 1.367-.326.586-.573 1.276-.742 2.07a13.11 13.11 0 00-.235 2.579v.781c0 .846.118 1.628.352 2.344a5.695 5.695 0 001.035 1.855c.456.521 1.003.925 1.641 1.211.651.287 1.386.43 2.207.43a6.854 6.854 0 002.832-.586 6.134 6.134 0 002.285-1.816l2.734 2.968c-.442.638-1.048 1.25-1.816 1.836-.755.586-1.667 1.068-2.735 1.446-1.067.364-2.285.547-3.652.547zm28.692-4.785v4.395H312.59v-4.395h16.055zm-.313-13.496l-13.477 17.89h-3.769v-3.339l13.418-17.793h3.828v3.242zm-1.992-3.242v4.414h-14.942V9.545h14.942zm17.246 16.367v-9.414c0-.677-.111-1.256-.332-1.738a2.468 2.468 0 00-1.035-1.152c-.456-.274-1.048-.41-1.778-.41-.625 0-1.165.11-1.621.332a2.346 2.346 0 00-1.054.917c-.248.391-.371.853-.371 1.387h-5.625c0-.898.208-1.751.625-2.558.416-.808 1.022-1.517 1.816-2.13.794-.624 1.738-1.113 2.832-1.464 1.107-.352 2.344-.528 3.711-.528 1.641 0 3.099.274 4.375.82 1.276.548 2.279 1.368 3.008 2.462.742 1.094 1.113 2.46 1.113 4.101v9.043c0 1.16.072 2.11.215 2.852.143.729.351 1.367.625 1.914v.332h-5.684c-.273-.573-.482-1.29-.625-2.149a17.734 17.734 0 01-.195-2.617zm.742-8.105l.039 3.183h-3.144c-.743 0-1.387.085-1.934.254-.547.17-.996.41-1.348.723-.351.3-.612.651-.781 1.055a3.654 3.654 0 00-.234 1.328c0 .482.11.918.332 1.308.221.378.54.677.957.899.417.208.905.312 1.465.312.846 0 1.582-.169 2.207-.508.625-.338 1.106-.755 1.445-1.25.352-.494.534-.963.547-1.406l1.484 2.383a9.663 9.663 0 01-.859 1.66 7.765 7.765 0 01-1.348 1.621 6.952 6.952 0 01-1.972 1.23c-.769.313-1.68.47-2.735.47-1.341 0-2.558-.267-3.652-.801-1.081-.547-1.94-1.296-2.578-2.246-.625-.964-.938-2.058-.938-3.282 0-1.106.209-2.09.625-2.949a5.76 5.76 0 011.836-2.168c.82-.599 1.843-1.048 3.067-1.347 1.224-.313 2.643-.47 4.257-.47h3.262zm25.43-15.567v28.438h-5.86V2.24h5.86zm11.328 12.149v4.57h-12.93v-4.57h12.93zm1.367-12.149v4.59h-14.297V2.24h14.297zm8.985-1.562v30h-5.645v-30h5.645zm3.75 19.648v-.41c0-1.55.221-2.975.664-4.277.442-1.315 1.087-2.455 1.933-3.418.847-.964 1.888-1.712 3.125-2.246 1.237-.547 2.656-.82 4.258-.82 1.602 0 3.027.273 4.277.82 1.25.534 2.298 1.282 3.145 2.246.859.963 1.51 2.103 1.953 3.418.443 1.302.664 2.728.664 4.277v.41c0 1.537-.221 2.963-.664 4.278a9.979 9.979 0 01-1.953 3.418c-.847.963-1.888 1.712-3.125 2.246s-2.656.8-4.258.8c-1.602 0-3.027-.266-4.277-.8a8.86 8.86 0 01-3.145-2.246c-.846-.977-1.491-2.116-1.933-3.418-.443-1.315-.664-2.741-.664-4.278zm5.624-.41v.41c0 .886.079 1.713.235 2.48.156.77.404 1.446.742 2.032a3.872 3.872 0 001.367 1.348c.56.325 1.244.488 2.051.488.781 0 1.452-.163 2.012-.488a3.708 3.708 0 001.347-1.348c.339-.586.586-1.263.743-2.031.169-.768.253-1.595.253-2.48v-.41c0-.86-.084-1.668-.253-2.423-.157-.768-.411-1.445-.762-2.03a3.786 3.786 0 00-1.348-1.407c-.56-.339-1.237-.508-2.031-.508s-1.471.17-2.031.508a4 4 0 00-1.348 1.406c-.338.586-.586 1.263-.742 2.031a11.96 11.96 0 00-.235 2.422zm23.477-5.761v16.523h-5.625V9.545h5.293l.332 4.61zm6.367-4.747l-.097 5.215a13.647 13.647 0 00-.997-.097c-.377-.04-.722-.059-1.035-.059-.794 0-1.484.104-2.07.313a3.687 3.687 0 00-1.445.878c-.378.391-.664.866-.86 1.426-.182.56-.286 1.198-.312 1.914l-1.133-.351c0-1.367.137-2.624.41-3.77.274-1.159.671-2.168 1.192-3.027.533-.86 1.184-1.524 1.953-1.992.768-.47 1.647-.704 2.636-.704.313 0 .632.027.957.079.326.039.593.097.801.175zm13.399 16.504v-9.414c0-.677-.111-1.256-.332-1.738a2.479 2.479 0 00-1.035-1.152c-.456-.274-1.049-.41-1.778-.41-.625 0-1.165.11-1.621.332a2.349 2.349 0 00-1.055.917c-.247.391-.371.853-.371 1.387h-5.625c0-.898.209-1.751.625-2.558.417-.808 1.022-1.517 1.817-2.13.794-.624 1.738-1.113 2.832-1.464 1.106-.352 2.343-.528 3.711-.528 1.64 0 3.099.274 4.375.82 1.276.548 2.278 1.368 3.007 2.462.743 1.094 1.114 2.46 1.114 4.101v9.043c0 1.16.071 2.11.215 2.852.143.729.351 1.367.625 1.914v.332h-5.684c-.273-.573-.482-1.29-.625-2.149a17.734 17.734 0 01-.195-2.617zm.742-8.105l.039 3.183h-3.145c-.742 0-1.386.085-1.933.254-.547.17-.996.41-1.348.723-.351.3-.612.651-.781 1.055a3.654 3.654 0 00-.234 1.328c0 .482.11.918.332 1.308.221.378.54.677.957.899.416.208.905.312 1.464.312.847 0 1.582-.169 2.207-.508.625-.338 1.107-.755 1.446-1.25.351-.494.534-.963.547-1.406l1.484 2.383a9.663 9.663 0 01-.859 1.66 7.765 7.765 0 01-1.348 1.621 6.944 6.944 0 01-1.973 1.23c-.768.313-1.679.47-2.734.47-1.341 0-2.559-.267-3.652-.801-1.081-.547-1.94-1.296-2.578-2.246-.626-.964-.938-2.058-.938-3.282 0-1.106.208-2.09.625-2.949a5.76 5.76 0 011.836-2.168c.82-.599 1.842-1.048 3.066-1.347 1.224-.313 2.644-.47 4.258-.47h3.262zM459.992.677v30h-5.644v-30h5.644zm27.09 25.392V.678h5.664v30h-5.098l-.566-4.61zm-13.359-5.704v-.41c0-1.614.182-3.08.547-4.394.364-1.328.898-2.468 1.601-3.418a7.293 7.293 0 012.598-2.207c1.028-.521 2.2-.782 3.515-.782 1.237 0 2.318.26 3.243.782.937.52 1.731 1.263 2.382 2.226.664.95 1.198 2.077 1.602 3.38.404 1.288.697 2.701.879 4.237v.899a22.526 22.526 0 01-.879 4.101c-.404 1.264-.938 2.37-1.602 3.32-.651.938-1.445 1.668-2.382 2.188-.938.521-2.032.782-3.282.782-1.315 0-2.487-.267-3.515-.801a7.458 7.458 0 01-2.578-2.246c-.691-.964-1.218-2.097-1.582-3.399-.365-1.302-.547-2.721-.547-4.258zm5.625-.41v.41c0 .873.065 1.687.195 2.442.143.755.371 1.426.684 2.012a3.778 3.778 0 001.25 1.347c.52.313 1.152.469 1.894.469.964 0 1.758-.215 2.383-.645.625-.442 1.1-1.048 1.426-1.816.338-.768.534-1.654.586-2.656v-2.559a9.227 9.227 0 00-.352-2.207c-.182-.664-.456-1.23-.82-1.7a3.628 3.628 0 00-1.328-1.093c-.521-.26-1.14-.39-1.856-.39-.729 0-1.354.169-1.875.507a3.715 3.715 0 00-1.269 1.348c-.313.573-.547 1.25-.704 2.031a13.675 13.675 0 00-.214 2.5zm27.519 11.114c-1.64 0-3.112-.26-4.414-.782-1.302-.534-2.409-1.27-3.32-2.207a9.804 9.804 0 01-2.071-3.261 10.998 10.998 0 01-.722-3.985v-.781c0-1.602.228-3.067.683-4.395.456-1.328 1.107-2.48 1.954-3.457a8.576 8.576 0 013.125-2.246c1.224-.534 2.604-.8 4.14-.8 1.498 0 2.826.247 3.985.742a7.82 7.82 0 012.91 2.109c.794.912 1.393 2.005 1.797 3.281.403 1.263.605 2.67.605 4.219v2.344h-16.797V18.1h11.27v-.43c0-.781-.144-1.478-.43-2.09a3.314 3.314 0 00-1.25-1.484c-.56-.365-1.276-.547-2.148-.547-.743 0-1.381.163-1.914.488a3.77 3.77 0 00-1.309 1.367c-.326.586-.573 1.276-.742 2.07a13.11 13.11 0 00-.235 2.579v.781c0 .846.118 1.628.352 2.344a5.695 5.695 0 001.035 1.855c.456.521 1.003.925 1.641 1.211.651.287 1.386.43 2.207.43a6.854 6.854 0 002.832-.586 6.134 6.134 0 002.285-1.816l2.734 2.968c-.442.638-1.048 1.25-1.816 1.836-.755.586-1.667 1.068-2.734 1.446-1.068.364-2.286.547-3.653.547zm33.262-10.528h-7.246v-4.57h7.246c1.12 0 2.031-.182 2.734-.547.703-.378 1.218-.898 1.543-1.563.326-.664.489-1.412.489-2.246 0-.846-.163-1.634-.489-2.363a3.943 3.943 0 00-1.543-1.758c-.703-.442-1.614-.664-2.734-.664h-5.215v23.848h-5.859V2.24h11.074c2.226 0 4.134.404 5.723 1.211 1.601.795 2.825 1.895 3.671 3.301.847 1.406 1.27 3.014 1.27 4.824 0 1.836-.423 3.425-1.27 4.766-.846 1.341-2.07 2.376-3.671 3.105-1.589.73-3.497 1.094-5.723 1.094zm23.809 10.527c-1.641 0-3.112-.26-4.415-.78-1.302-.535-2.408-1.27-3.32-2.208a9.817 9.817 0 01-2.07-3.261 10.977 10.977 0 01-.723-3.985v-.781c0-1.602.228-3.067.684-4.395.455-1.328 1.107-2.48 1.953-3.457a8.576 8.576 0 013.125-2.246c1.224-.534 2.604-.8 4.14-.8 1.498 0 2.826.247 3.985.742 1.159.495 2.129 1.198 2.91 2.109.794.912 1.393 2.005 1.797 3.281.404 1.263.605 2.67.605 4.219v2.344h-16.797V18.1h11.27v-.43c0-.781-.143-1.478-.43-2.09a3.314 3.314 0 00-1.25-1.484c-.56-.365-1.276-.547-2.148-.547-.742 0-1.38.163-1.914.488-.534.326-.97.781-1.309 1.367-.325.586-.573 1.276-.742 2.07a13.19 13.19 0 00-.234 2.579v.781c0 .846.117 1.628.351 2.344a5.732 5.732 0 001.035 1.855c.456.521 1.003.925 1.641 1.211.651.287 1.387.43 2.207.43 1.016 0 1.96-.195 2.832-.586a6.126 6.126 0 002.285-1.816l2.735 2.968c-.443.638-1.049 1.25-1.817 1.836-.755.586-1.666 1.068-2.734 1.446-1.068.364-2.285.547-3.652.547zm22.226-21.523v3.985h-12.305V9.545h12.305zm-9.258-5.215h5.625v19.98c0 .613.078 1.082.235 1.407.169.326.416.553.742.684.325.117.735.175 1.23.175.352 0 .664-.013.938-.039.286-.039.527-.078.722-.117l.02 4.14c-.482.157-1.003.28-1.563.372-.559.091-1.178.137-1.855.137-1.237 0-2.318-.202-3.242-.606-.912-.417-1.615-1.08-2.11-1.992-.494-.912-.742-2.11-.742-3.594V4.33zm23.867 21.582v-9.414c0-.677-.11-1.256-.332-1.738a2.468 2.468 0 00-1.035-1.152c-.455-.274-1.048-.41-1.777-.41-.625 0-1.165.11-1.621.332a2.349 2.349 0 00-1.055.917c-.247.391-.371.853-.371 1.387h-5.625c0-.898.208-1.751.625-2.558.417-.808 1.022-1.517 1.816-2.13.795-.624 1.739-1.113 2.832-1.464 1.107-.352 2.344-.528 3.711-.528 1.641 0 3.099.274 4.375.82 1.276.548 2.279 1.368 3.008 2.462.742 1.094 1.114 2.46 1.114 4.101v9.043c0 1.16.071 2.11.214 2.852.144.729.352 1.367.625 1.914v.332h-5.683c-.274-.573-.482-1.29-.625-2.149a17.736 17.736 0 01-.196-2.617zm.743-8.105l.039 3.183h-3.145c-.742 0-1.387.085-1.933.254-.547.17-.997.41-1.348.723-.352.3-.612.651-.781 1.055a3.633 3.633 0 00-.235 1.328c0 .482.111.918.332 1.308.222.378.541.677.957.899.417.208.905.312 1.465.312.847 0 1.582-.169 2.207-.508.625-.338 1.107-.755 1.446-1.25.351-.494.533-.963.546-1.406l1.485 2.383a9.672 9.672 0 01-.86 1.66 7.729 7.729 0 01-1.347 1.621 6.958 6.958 0 01-1.973 1.23c-.768.313-1.68.47-2.734.47-1.341 0-2.559-.267-3.653-.801-1.08-.547-1.94-1.296-2.578-2.246-.625-.964-.937-2.058-.937-3.282 0-1.106.208-2.09.625-2.949a5.743 5.743 0 011.836-2.168c.82-.599 1.842-1.048 3.066-1.347 1.224-.313 2.643-.47 4.258-.47h3.262zM616.711.677v30h-5.645v-30h5.645zm16.562 6.427l-7.734 23.574h-6.23L629.875 2.24h3.965l-.567 4.864zm6.426 23.574l-7.754-23.574-.625-4.864h4.004l10.625 28.438h-6.25zm-.351-10.586v4.59h-15.02v-4.59h15.02zm14.511-5.937v16.523h-5.625V9.545h5.293l.332 4.61zm6.368-4.747l-.098 5.215a13.67 13.67 0 00-.996-.097c-.378-.04-.723-.059-1.035-.059-.795 0-1.485.104-2.071.313a3.694 3.694 0 00-1.445.878c-.378.391-.664.866-.859 1.426-.183.56-.287 1.198-.313 1.914l-1.133-.351c0-1.367.137-2.624.411-3.77.273-1.159.67-2.168 1.191-3.027.534-.86 1.185-1.524 1.953-1.992.768-.47 1.647-.704 2.637-.704.312 0 .631.027.957.079.325.039.592.097.801.175zm13.984.137v3.985h-12.305V9.545h12.305zm-9.258-5.215h5.625v19.98c0 .613.078 1.082.234 1.407.17.326.417.553.743.684.325.117.735.175 1.23.175.352 0 .664-.013.938-.039.286-.039.527-.078.722-.117l.02 4.14c-.482.157-1.003.28-1.563.372a11.58 11.58 0 01-1.855.137c-1.237 0-2.318-.202-3.242-.606-.912-.417-1.615-1.08-2.11-1.992-.494-.912-.742-2.11-.742-3.594V4.33z" fill="#fff"/></svg>